
<svg xmlns="http://www.w3.org/2000/svg" 
        fill="rgba(255, 255, 255, 0.6)"
        width="150"

viewBox="0 0 864 198">
  
  <path fill-rule="evenodd" d="M604.242 142.891c-3.664 6.401-8.93 11.202-15.799 14.632-6.869 3.429-13.966 5.029-21.293 5.029-10.533 0-19.691-2.514-27.705-7.544-8.013-5.03-14.195-12.117-18.546-21.034-4.579-8.687-6.64-18.518-6.64-29.492 0-10.517 2.061-20.348 6.64-29.264 4.351-8.688 10.533-15.776 18.775-20.805 8.014-5.03 17.172-7.773 27.476-7.773 7.098 0 13.966 1.6 20.606 4.8 6.64 3.201 11.906 7.774 15.799 13.718V0h28.849v160.038h-27.933c0-4.39-.078-8.16-.143-11.311v-.006c-.046-2.263-.086-4.206-.086-5.83Zm-52.433-16.004c5.724 6.173 13.051 9.145 21.752 9.145 8.7 0 16.027-2.972 21.98-9.145 5.724-5.944 8.701-13.489 8.701-22.405 0-8.688-2.977-16.233-8.701-22.177-5.953-5.944-13.28-9.145-21.98-9.145-8.93 0-16.257 3.2-21.981 9.145-5.724 5.944-8.471 13.489-8.471 22.177 0 8.916 2.747 16.461 8.7 22.405ZM296.014 141.986c3.434 6.63 8.7 11.659 15.798 15.317 6.869 3.658 14.425 5.487 22.209 5.487 10.075 0 19.233-2.514 27.247-7.544 8.014-5.03 14.196-12.117 18.775-21.034 4.35-8.687 6.64-18.518 6.64-29.492 0-10.517-2.29-20.348-6.64-29.264-4.579-8.688-10.761-15.776-18.775-20.805-8.014-5.03-17.172-7.774-27.247-7.774-7.326 0-14.424 1.83-21.064 5.03-6.64 3.201-11.906 7.774-15.57 13.49V.236h-28.849v160.039h27.476v-18.29Zm31.368-5.716c-8.701 0-16.028-2.972-21.981-9.145-5.953-5.944-8.7-13.489-8.7-22.405 0-8.688 2.747-16.233 8.7-22.177 5.724-5.944 13.051-9.145 21.981-9.145 8.7 0 16.027 3.2 21.751 9.145 5.724 5.944 8.701 13.489 8.701 22.177 0 8.916-2.977 16.461-8.701 22.405-5.953 6.173-13.051 9.145-21.751 9.145Z" clip-rule="evenodd"/>
  <path d="M477.294 11.37c3.599-3.368 7.872-5.165 13.045-5.165 4.948 0 9.446 1.797 13.045 5.165 3.598 3.593 5.398 7.636 5.398 12.127 0 4.94-1.8 8.983-5.398 12.351-3.599 3.593-8.097 5.165-13.045 5.165-5.173 0-9.446-1.572-13.045-5.165-3.598-3.368-5.397-7.41-5.397-12.351 0-4.491 1.799-8.534 5.397-12.127ZM476.514 48.47l-.687.228V160.04h28.849V48.699l-.458-.23c-3.663 1.601-8.242 2.287-13.738 2.287-5.724 0-10.303-.686-13.966-2.286ZM262.75 49.394h-31.597l-28.849 69.044h-.916l-27.247-69.044h-32.284l43.961 102.424L164.983 198h31.367l66.4-148.606ZM646.48 48.47l-.687.228V160.04h28.849V48.699l-.458-.23c-3.663 1.601-8.243 2.287-13.738 2.287-5.724 0-10.303-.686-13.966-2.286ZM647.174 11.37c3.598-3.368 7.872-5.165 13.044-5.165 4.948 0 9.447 1.797 13.045 5.165 3.599 3.593 5.398 7.636 5.398 12.127 0 4.94-1.799 8.983-5.398 12.351-3.598 3.593-8.097 5.165-13.045 5.165-5.172 0-9.446-1.572-13.044-5.165-3.599-3.368-5.398-7.41-5.398-12.351 0-4.491 1.799-8.534 5.398-12.127ZM701.858 124.371V74.76h-15.112V49.154h15.112V15.49h28.849v33.663l44.684.002 27.247 69.045h.916l28.849-69.045H864l-66.399 148.606h-31.368l20.836-46.182-32.972-76.82h-23.39v44.582c0 11.431 5.037 17.146 15.34 17.146 3.664 0 6.411-.685 8.472-2.057v25.377c-3.434 1.829-8.243 2.515-14.654 2.515-25.415 0-38.007-12.574-38.007-37.952ZM104.865 91.688H30.681v68.588H0V.238h30.681V62.88h74.184V.238h30.91v160.038h-30.91V91.688ZM454.133 47.336c2.929 0 5.626.232 8.096.696l.619.854v31.346l-.015.026-.687.228c-1.373-.914-2.976-1.829-5.266-2.515-2.289-.457-4.808-.914-7.327-.914-8.471 0-14.653 3.43-18.317 10.06-3.663 6.63-5.495 15.089-5.495 25.605v47.554h-28.849V49.393h28.162v18.748c2.519-6.402 6.182-11.432 11.22-15.09 5.037-3.658 10.99-5.715 17.859-5.715Z"/>

</svg>