<svg
        width="150"
        height="26"
        viewBox="0 0 140 27"
        fill="rgba(255, 255, 255, 0.6)"
        xmlns="http://www.w3.org/2000/svg"
        aria-hidden="true"
      >
        <path d="M21.4738 21.4112H13.4222V5.35226H21.4738V0H0V5.35226H8.05377V21.4112H0V26.7635H21.4738V21.4112Z"></path>
        <path d="M87.406 21.4113H100.498L101.841 26.7635H107.375L102.007 5.35447V0.00221252H85.9016V5.35447L80.5332 26.7635H86.0678L87.406 21.4113ZM91.4318 5.35226H96.4701L99.1555 16.0568H88.7487L91.4318 5.35226Z"></path>
        <path d="M75.1603 21.4112H59.055V16.059H72.4772V10.7045H59.055V5.35226H75.1603V0H53.6865V26.7635H75.1603V21.4112Z"></path>
        <path d="M34.8958 21.4112H32.2127V26.7635H42.9496V21.4112H40.2642V5.35226H48.318V0H26.8442V5.35226H34.8958V21.4112Z"></path>
        <path d="M126.215 13.3818H126.111L122.756 0H112.742V26.7635H118.11V5.35226H118.564L121.919 18.734H130.407L133.761 5.35226H134.215V26.7635H139.584V0H129.569L126.215 13.3818Z"></path>
      </svg>